<svg enable-background="new 0 0 512 512" height="512" viewBox="0 0 512 512" width="512" xmlns="http://www.w3.org/2000/svg"><g id="BULINE"><path id="XMLID_2_" d="m512 256c0 70.692-28.654 134.692-74.981 181.019s-110.327 74.981-181.019 74.981-134.692-28.654-181.019-74.981-74.981-110.327-74.981-181.019 28.654-134.692 74.981-181.019 110.327-74.981 181.019-74.981 134.692 28.654 181.019 74.981 74.981 110.327 74.981 181.019z" fill="#4a4b9b"/></g><g id="Icons"><g id="XMLID_850_"><path d="m281.593 68.56h-52.817c-6.302 0-12.226-2.454-16.682-6.91s-6.91-10.38-6.91-16.681v-5.817c0-6.302 2.454-12.226 6.91-16.682 4.457-4.456 10.381-6.91 16.682-6.91h52.817c6.301 0 12.225 2.454 16.682 6.909 4.455 4.456 6.909 10.38 6.909 16.683v5.817c0 6.302-2.454 12.226-6.909 16.681-4.457 4.455-10.38 6.91-16.682 6.91zm-52.818-45c-4.164 0-8.079 1.622-11.025 4.567-2.944 2.944-4.566 6.859-4.566 11.024v5.817c0 4.164 1.622 8.079 4.566 11.024 2.945 2.944 6.86 4.566 11.025 4.566h52.817c4.165 0 8.08-1.622 11.025-4.566 2.944-2.944 4.565-6.859 4.565-11.024v-5.817c0-4.165-1.621-8.081-4.565-11.025-2.946-2.944-6.861-4.566-11.025-4.566z" fill="#27273d"/><path id="XMLID_906_" d="m284.684 75.466v-7.389-7.389c0-5.144-2.085-9.801-5.456-13.172s-8.028-5.456-13.172-5.456h-10.872-10.872c-5.144 0-9.801 2.085-13.172 5.456s-5.456 8.028-5.456 13.172v7.389 7.389c-48.788 7.14-91.913 31.717-122.841 67.202s-49.659 81.877-49.659 132.647c0 55.781 22.61 106.281 59.164 142.836s87.055 59.164 142.836 59.164 106.281-22.61 142.836-59.164 59.164-87.055 59.164-142.836c0-50.77-18.731-97.162-49.659-132.647s-74.053-60.062-122.841-67.202z" fill="#ea2d88"/><path id="XMLID_905_" d="m240.805 440.955c9.72 6.8 20.068 12.765 30.938 17.793 10.87 5.027 22.262 9.117 34.072 12.168-8.09 2.09-16.375 3.69-24.824 4.767s-17.061 1.632-25.806 1.632c-55.78 0-106.28-22.61-142.835-59.165s-59.165-87.055-59.165-142.835 22.61-106.28 59.165-142.835 87.055-59.165 142.835-59.165c8.745 0 17.357.555 25.806 1.633s16.734 2.678 24.824 4.768c-11.815 3.05-23.21 7.14-34.082 12.169s-21.222 10.996-30.947 17.801c-26.1 18.26-47.685 42.532-62.745 70.807s-23.595 60.552-23.595 94.822c0 34.275 8.538 66.558 23.601 94.835 15.063 28.278 36.653 52.55 62.758 70.805z" fill="#c6267a"/><path id="XMLID_904_" d="m88.929 275.315c0 45.91 18.609 87.474 48.695 117.56s71.65 48.695 117.56 48.695 87.474-18.609 117.56-48.695 48.695-71.65 48.695-117.56-18.609-87.474-48.695-117.56-71.65-48.695-117.56-48.695-87.474 18.609-117.56 48.695-48.695 71.65-48.695 117.56z" fill="#ffe8b0"/><path id="XMLID_903_" d="m240.805 440.955c-42.545-3.64-80.515-23.305-107.849-52.932s-44.031-69.218-44.031-112.708c0-43.485 16.695-83.07 44.025-112.695s65.295-49.29 107.835-52.935c-26.1 18.26-47.685 42.532-62.745 70.807s-23.595 60.552-23.595 94.822c0 34.275 8.538 66.558 23.601 94.835 15.064 28.279 36.654 52.551 62.759 70.806z" fill="#e0ca99"/><g fill="#27273d"><path d="m255.184 152.981c-4.143 0-7.5-3.357-7.5-7.5v-25c0-4.143 3.357-7.5 7.5-7.5s7.5 3.357 7.5 7.5v25c0 4.143-3.358 7.5-7.5 7.5z"/><path d="m255.184 439.394c-4.143 0-7.5-3.357-7.5-7.5v-25c0-4.143 3.357-7.5 7.5-7.5s7.5 3.357 7.5 7.5v25c0 4.142-3.358 7.5-7.5 7.5z"/><path d="m410.89 283.688h-25c-4.143 0-7.5-3.357-7.5-7.5s3.357-7.5 7.5-7.5h25c4.143 0 7.5 3.357 7.5 7.5s-3.358 7.5-7.5 7.5z"/><path d="m124.479 283.688h-25c-4.143 0-7.5-3.357-7.5-7.5s3.357-7.5 7.5-7.5h25c4.143 0 7.5 3.357 7.5 7.5s-3.358 7.5-7.5 7.5z"/><path d="m365.284 392.916c-1.919 0-3.839-.732-5.304-2.196l-17.678-17.678c-2.929-2.93-2.929-7.678 0-10.607 2.93-2.928 7.678-2.928 10.607 0l17.678 17.678c2.929 2.93 2.929 7.678 0 10.607-1.464 1.464-3.384 2.196-5.303 2.196z"/><path d="m162.761 190.393c-1.919 0-3.839-.732-5.304-2.196l-17.678-17.678c-2.929-2.93-2.929-7.678 0-10.607 2.93-2.928 7.678-2.928 10.607 0l17.678 17.678c2.929 2.93 2.929 7.678 0 10.607-1.464 1.463-3.384 2.196-5.303 2.196z"/><path d="m347.606 190.393c-1.919 0-3.839-.732-5.304-2.196-2.929-2.93-2.929-7.678 0-10.607l17.678-17.678c2.93-2.928 7.678-2.928 10.607 0 2.929 2.93 2.929 7.678 0 10.607l-17.678 17.678c-1.464 1.463-3.384 2.196-5.303 2.196z"/><path d="m145.083 392.916c-1.919 0-3.839-.732-5.304-2.196-2.929-2.93-2.929-7.678 0-10.607l17.678-17.678c2.93-2.928 7.678-2.928 10.607 0 2.929 2.93 2.929 7.678 0 10.607l-17.678 17.678c-1.464 1.464-3.384 2.196-5.303 2.196z"/></g><path id="XMLID_894_" d="m325.559 229.293-3.835 7.94-3.835 7.94-.78 1.62-.78 1.62-4.515 9.345-4.515 9.345-12.925 26.765-12.925 26.765-12.885 6.22-12.885 6.22-23.225 11.215-23.225 11.215-1.835.89-1.835.89-7.72 3.725-7.72 3.725c-2.235 1.08-4.525.45-5.986-1.009s-2.094-3.746-1.014-5.981l1.755-3.64 1.755-3.64c.545.14 1.12.187 1.707.127.588-.06 1.188-.227 1.783-.517l7.72-3.73 7.72-3.73 1.835-.885 1.835-.885 12.235-5.91 12.235-5.91 23.875-11.53 23.875-11.53 11.53-23.875 11.53-23.875 5.91-12.235 5.91-12.235.885-1.835.885-1.835 1.97-4.08 1.97-4.08c1.5.355 2.777 1.382 3.481 2.73.704 1.347.834 3.015.039 4.65z" fill="#ccb68b"/><path id="XMLID_892_" d="m200.945 278.393c0 14.978 6.071 28.538 15.886 38.353s23.375 15.886 38.353 15.886 28.538-6.071 38.353-15.886 15.886-23.375 15.886-38.353-6.071-28.538-15.886-38.353-23.375-15.886-38.353-15.886-28.538 6.071-38.353 15.886-15.886 23.375-15.886 38.353z" fill="#3588cd"/><path id="XMLID_891_" d="m308.144 266.643-12.925 26.765-12.925 26.765-12.885 6.22-12.885 6.22c-.225.005-.448.01-.67.014s-.445.006-.67.006c-3.655 0-7.225-.36-10.676-1.049s-6.784-1.706-9.964-3.021l23.875-11.53 23.875-11.53 11.53-23.875 11.53-23.875c.59 1.425 1.12 2.88 1.586 4.362.467 1.483.869 2.993 1.204 4.528z" fill="#2b78a3"/><g id="XMLID_853_"><path id="XMLID_890_" d="m319.405 207.175-45.666 22.053-45.666 22.053 13.556 13.556 13.556 13.556 13.556 13.556 13.556 13.556 22.053-45.666 22.053-45.666c1.079-2.235.447-4.523-1.013-5.984-1.461-1.461-3.75-2.093-5.985-1.014z" fill="#dd1b1b"/><path id="XMLID_889_" d="m190.963 349.611 45.666-22.053 45.666-22.053-13.556-13.556-13.556-13.556-13.556-13.556-13.556-13.556-22.053 45.666-22.053 45.666c-1.079 2.235-.447 4.524 1.013 5.984 1.461 1.462 3.75 2.094 5.985 1.014z" fill="#fff"/><path id="XMLID_855_" d="m317.172 233.286-36.109 17.438-36.109 17.438-8.44-8.44-8.44-8.44 45.665-22.052 45.665-22.052c2.235-1.079 4.525-.448 5.985 1.013 1.46 1.46 2.092 3.75 1.013 5.985l-4.614 9.555z" fill="#bc1919"/><path id="XMLID_854_" d="m210.077 340.381-9.556 4.614-9.556 4.614c-2.235 1.079-4.525.448-5.985-1.013-1.46-1.46-2.092-3.75-1.013-5.985l22.052-45.665 22.052-45.665 8.44 8.44 8.44 8.44-17.438 36.109z" fill="#c1bfbf"/></g><path id="XMLID_852_" d="m373.875 118.315c3.63 3.66 6.254 7.63 7.562 11.09s1.3 6.411-.334 8.031-4.584 1.604-8.034.268c-3.449-1.336-7.398-3.993-11.028-7.653s-6.254-7.63-7.562-11.09-1.3-6.411.334-8.031 4.584-1.604 8.034-.268c3.449 1.337 7.398 3.993 11.028 7.653z" fill="#ef65ad"/><path id="XMLID_851_" d="m388.294 139.613c3.63 3.66 6.254 7.63 7.562 11.09s1.3 6.411-.334 8.031-4.584 1.604-8.034.268-7.398-3.993-11.028-7.653-6.254-7.63-7.562-11.09-1.3-6.411.334-8.031 4.584-1.604 8.034-.268 7.398 3.994 11.028 7.653z" fill="#f286c3"/></g></g></svg>