<svg width="396" height="80" viewBox="0 0 396 80" fill="none" xmlns="http://www.w3.org/2000/svg">
<g clip-path="url(#clip0)">
<path d="M35.3542 51.1422C33.0151 52.2531 29.4062 52.972 25.7972 52.972C14.9036 52.972 8.55454 46.11 8.55454 35.2616C8.55454 23.6943 15.5719 17.0937 26.1314 17.0937C29.874 17.0937 33.0151 17.8779 35.1538 18.9236L36.6241 14.2836C35.0869 13.4993 31.478 12.323 25.9309 12.323C11.963 12.323 2.40598 21.603 2.40598 35.4577C2.40598 49.9658 11.8961 57.8081 24.5943 57.8081C30.0745 57.8081 34.4186 56.7624 36.4904 55.7168L35.3542 51.1422ZM39.3027 57.0892H45.184V38.0064C45.184 36.9607 45.2508 36.1112 45.585 35.2616C46.7211 32.19 49.6617 29.576 53.4712 29.576C59.0182 29.576 60.9564 33.8238 60.9564 38.9213V57.0892H66.8376V38.2678C66.8376 27.4193 59.887 24.8053 55.5429 24.8053C53.3375 24.8053 51.2657 25.3934 49.5281 26.3737C47.7236 27.354 46.2533 28.8571 45.3176 30.4909H45.184V10.6892H39.3027V57.0892ZM77.9106 57.0892V25.4588H72.0294V57.0892H77.9106ZM74.97 12.9765C72.7645 12.9765 71.2942 14.6103 71.2942 16.5709C71.2942 18.5315 72.6977 20.0999 74.8363 20.0999C77.1755 20.0999 78.5789 18.5315 78.5789 16.5709C78.5789 14.545 77.1086 12.9765 74.97 12.9765ZM83.349 57.0892H89.2302V10.6892H83.349V57.0892ZM120.797 42.3196C120.931 41.6661 120.998 40.8165 120.998 39.6402C120.998 33.8238 118.258 24.8053 107.631 24.8053C98.208 24.8053 92.4604 32.2554 92.4604 41.7968C92.4604 51.3382 98.4085 57.8081 108.367 57.8081C113.513 57.8081 117.122 56.6971 119.193 55.7822L118.124 51.665C115.985 52.5799 113.379 53.2988 109.168 53.2988C103.22 53.2988 98.208 50.0965 98.0743 42.3196H120.797ZM98.1412 38.2024C98.609 34.216 101.149 28.9224 107.164 28.9224C113.78 28.9224 115.384 34.6081 115.317 38.2024H98.1412ZM146.659 37.6796C146.659 31.4058 144.253 24.8053 134.362 24.8053C130.286 24.8053 126.342 25.9162 123.669 27.55L125.006 31.4058C127.278 29.9027 130.419 29.0531 133.493 29.0531C140.11 28.9878 140.845 33.7585 140.845 36.3072V36.9607C128.347 36.8954 121.397 41.0779 121.397 48.7241C121.397 53.2988 124.738 57.8081 131.288 57.8081C135.899 57.8081 139.375 55.5861 141.18 53.1027H141.38L141.848 57.0892H147.127C146.793 54.9326 146.659 52.2531 146.659 49.5083V37.6796ZM140.979 46.4368C140.979 46.9596 140.912 47.6131 140.711 48.2667C139.776 50.9461 137.036 53.5602 132.758 53.5602C129.818 53.5602 127.278 51.861 127.278 48.0706C127.278 41.9275 134.563 40.8165 140.979 40.9472V46.4368ZM151.834 57.0892H157.715V38.0717C157.715 37.0915 157.849 36.1112 158.116 35.3923C159.185 32.19 162.193 29.5106 166.002 29.5106C171.549 29.5106 173.488 33.7585 173.488 38.856V57.0892H179.369V38.2678C179.369 27.4193 172.418 24.8053 167.941 24.8053C162.594 24.8053 158.851 27.7461 157.247 30.6869H157.114L156.78 25.4588H151.567C151.767 28.0729 151.834 30.6869 151.834 34.0199V57.0892ZM182.489 54.8019C184.828 56.5664 189.373 57.8081 193.249 57.8081C202.873 57.8081 207.551 52.0571 207.551 45.6526C207.551 39.052 203.608 35.7844 196.19 32.8436C189.707 30.3602 186.833 27.8768 186.833 22.9754C186.833 19.5117 189.306 14.9371 196.591 14.9371C200.467 14.9371 203.341 16.1788 204.544 17.0284L205.747 14.4143C204.21 13.3686 201.002 12.323 196.791 12.323C189.106 12.323 183.692 17.0284 183.692 23.4982C183.692 29.5106 188.036 33.1703 195.254 35.6537C201.804 38.1371 204.41 41.0126 204.41 45.9793C204.41 51.4036 200.267 55.1286 193.516 55.1286C189.774 55.1286 186.232 53.9523 183.692 52.2531L182.489 54.8019ZM211.752 57.0892H214.96V37.941C214.96 36.634 215.027 35.7844 215.361 34.8041C216.765 30.9484 220.508 27.7461 225.052 27.7461C231.602 27.7461 233.874 32.8436 233.874 38.5292V57.0892H237.082V38.2024C237.082 26.5044 228.928 25.0013 225.921 25.0013C223.515 25.0013 221.309 25.6548 219.438 26.8312C217.567 27.8768 216.03 29.576 215.094 31.3405H214.96V10.6892H211.752V57.0892ZM263.222 37.3529C263.222 31.7979 261.418 25.0013 252.128 25.0013C249.255 25.0013 245.646 25.7855 242.705 27.6808L243.707 29.9681C246.047 28.3343 248.987 27.6154 251.794 27.6154C259.413 27.55 260.015 33.7585 260.015 36.83V37.6796C246.915 37.5489 240.433 41.9275 240.433 49.1816C240.433 53.3641 243.373 57.8081 249.856 57.8081C255.002 57.8081 258.544 54.9979 260.148 52.5799H260.282L260.75 57.0892H263.69C263.289 54.6712 263.222 52.1224 263.222 49.6391V37.3529ZM260.015 47.025C260.015 47.5478 259.948 48.2667 259.68 48.9202C258.611 51.9917 255.537 55.194 250.19 55.194C246.849 55.194 243.774 53.1681 243.774 48.6588C243.774 41.1433 252.997 40.0976 260.015 40.2937V47.025ZM272.385 10.6892H269.177V57.0892H272.385V44.0188L275.66 40.6205L288.759 57.0892H292.635L277.865 38.7253L290.831 25.7202H286.954L275.593 37.3529C274.59 38.3985 273.321 39.8362 272.519 40.8165H272.385V10.6892ZM318.004 41.0779C318.138 40.4898 318.138 40.0323 318.138 39.1827C318.138 34.6734 316.133 25.0013 305.64 25.0013C297.353 25.0013 291.204 31.5365 291.204 41.9929C291.204 51.2075 296.952 57.7427 306.175 57.7427C311.789 57.7427 315.064 56.3703 316.267 55.7168L315.465 53.2988C313.66 54.1484 311.254 55.0633 306.576 55.0633C299.893 55.0633 294.346 51.0768 294.346 41.0779H318.004ZM294.479 38.5946C295.081 33.7585 298.155 27.6154 305.239 27.6154C312.992 27.6154 314.863 34.216 314.796 38.5946H294.479Z" fill="url(#paint0_linear)"/>
<path d="M334.006 34.6483V34.4483H333.806H327.905C326.665 34.4483 325.782 33.7109 325.477 32.7829C325.173 31.8588 325.436 30.7218 326.549 29.9054L326.556 29.8998L326.563 29.8936L359.015 1.04489L359.015 1.04506L359.022 1.03841C359.418 0.651531 360.026 0.446078 360.69 0.446078C361.349 0.446078 362.041 0.649255 362.592 1.05123L395.034 29.8904C396.674 31.4993 395.577 34.4483 393.104 34.4483H387.204H387.004V34.6483V51.7576H384.962L383.543 49.2626L383.539 49.2556L383.535 49.2489C382.93 48.3615 382.026 47.4772 381.118 46.886L381.118 46.8858L381.11 46.881C378.073 45.0986 374.125 46.2737 372.586 49.241L372.52 49.3056L368.802 40.9146C367.891 38.837 366.057 37.3335 363.603 37.3335H363.308C360.886 37.3335 358.741 38.5187 357.817 40.6207L351.507 52.9609L348.145 46.3856L348.139 46.3744L348.132 46.364C346.936 44.6088 345.113 43.1029 342.951 43.1029H342.656C340.529 43.1029 338.696 43.9978 337.476 45.7871L337.475 45.789L334.006 51.007V34.6483ZM363.308 20.0242H363.108V20.2242V25.9936V26.1936H363.308H369.208H369.408V25.9936V20.2242V20.0242H369.208H363.308ZM363.308 28.6789H363.108V28.8789V34.6483V34.8483H363.308H369.208H369.408V34.6483V28.8789V28.6789H369.208H363.308ZM351.507 20.0242H351.307V20.2242V25.9936V26.1936H351.507H357.408H357.608V25.9936V20.2242V20.0242H357.408H351.507ZM351.507 28.6789H351.307V28.8789V34.6483V34.8483H351.507H357.408H357.608V34.6483V28.8789V28.6789H357.408H351.507Z" fill="url(#paint1_linear)" stroke="#1E1D1D" stroke-width="0.4"/>
<path d="M382.78 54.8428L380.714 50.5157C379.534 48.4962 376.584 48.4962 375.404 50.5157L372.454 56.5735L365.964 42.1491C365.078 40.13 361.833 39.8415 360.653 41.861L351.507 60.0353L345.312 47.9189C344.427 45.8997 341.476 45.8997 340.297 47.6304L335.281 54.8428H324.955V60.6122H336.756C337.641 60.6122 338.526 60.0353 339.116 59.4588L342.066 54.8428L348.557 67.825C349.442 69.2668 351.212 69.8441 352.687 68.9784C353.277 68.6899 353.572 68.4019 353.867 67.825L362.718 50.2272L369.208 64.6513C370.093 66.6708 373.339 66.9592 374.519 64.9397L377.764 58.5927L378.059 59.1703C378.649 60.0353 379.534 60.6122 380.714 60.9007L395.466 61.1895V55.4197L382.78 54.8428Z" fill="url(#paint2_linear)"/>
</g>
<defs>
<linearGradient id="paint0_linear" x1="57.4219" y1="37.1831" x2="282.337" y2="36.8015" gradientUnits="userSpaceOnUse">
<stop stop-color="#FF765B"/>
<stop offset="1" stop-color="#FD89BC" stop-opacity="0.92"/>
</linearGradient>
<linearGradient id="paint1_linear" x1="360.586" y1="0.246078" x2="360.586" y2="53.4002" gradientUnits="userSpaceOnUse">
<stop stop-color="white"/>
<stop offset="1" stop-color="white" stop-opacity="0"/>
</linearGradient>
<linearGradient id="paint2_linear" x1="333.667" y1="54.5454" x2="380.417" y2="54.5454" gradientUnits="userSpaceOnUse">
<stop stop-color="#FF512F"/>
<stop offset="1" stop-color="#EA80AE"/>
</linearGradient>
<clipPath id="clip0">
<rect width="396" height="80" fill="white"/>
</clipPath>
</defs>
</svg>
