<svg height="512" viewBox="0 0 58 49" width="512" xmlns="http://www.w3.org/2000/svg"><g id="Page-1" fill="none" fill-rule="evenodd"><g id="039---Tape-Measure" fill-rule="nonzero" transform="translate(0 -1)"><path id="Rectangle-path" d="m39 34h16v10h-16z" fill="#f0c419"/><path id="Shape" d="m22 6.03 4.6-4.47c.5021283-.49503078 1.2297222-.68550039 1.91-.5 3.450253.99416923 6.6644042 2.67437101 9.45 4.94.4991087.41743711.7639554 1.05157729.71 1.7l-.57 7.1z" fill="#bdc3c7"/><path id="Shape" d="m0 36v-9c0-11.5979797 9.40202025-21 21-21 .34 0 .67.01 1 .03 5.2189997.23857301 10.159742 2.42177467 13.85 6.12 3.9467814 3.9328159 6.1605614 9.2782846 6.15 14.85v17c0 3.3137085-2.6862915 6-6 6h-24z" fill="#ff5364"/><path id="Shape" d="m4 28c-.55228475 0-1-.4477153-1-1-.01003736-8.263258 5.61523774-15.4687593 13.634-17.464.3498693-.09594353.72426.00512494.9783171.26410116.2540571.25897624.3479281.63523604.2452935.98320134-.1026346.3479652-.385675.6130526-.7396106.6926975-7.12727815 1.7743742-12.12685335 8.1791774-12.118 15.524 0 .5522847-.44771525 1-1 1z" fill="#fff"/><path id="Shape" d="m14 45.26v2.74c-.0032948 1.1032019-.8967981 1.9967052-2 2h-7c-1.32608245 0-2.59785201-.5267842-3.53553391-1.4644661-.93768189-.9376819-1.46446609-2.2094515-1.46446609-3.5355339v-9c.0032948-1.1032019.89679813-1.9967052 2-2h.77c.72932436.0016555 1.39992529.400184 1.75 1.04 1.93361921 3.5684563 4.85306821 6.5052623 8.41 8.46.6582428.3398617 1.0712483 1.0191977 1.07 1.76z" fill="#df4d60"/><path id="Shape" d="m58 36v12c-.0032948 1.1032019-.8967981 1.9967052-2 2h-1c-1.1032019-.0032948-1.9967052-.8967981-2-2v-14h3c1.1032019.0032948 1.9967052.8967981 2 2z" fill="#bdc3c7"/><path id="Shape" d="m48 34v3c0 .5522847-.4477153 1-1 1s-1-.4477153-1-1v-3z" fill="#f29c1f"/><circle id="Oval" cx="21" cy="10" fill="#fff" r="1"/><circle id="Oval" cx="35" cy="43" fill="#802f34" r="3"/><circle id="Oval" cx="21" cy="28" fill="#fff" r="10"/><path id="Shape" d="m21 39c-6.0751322 0-11-4.9248678-11-11s4.9248678-11 11-11 11 4.9248678 11 11c-.0071635 6.0721626-4.9278374 10.9928365-11 11zm0-20c-4.9705627 0-9 4.0294373-9 9s4.0294373 9 9 9 9-4.0294373 9-9c-.0055111-4.9682782-4.0317218-8.9944889-9-9z" fill="#bdc3c7"/></g></g></svg>